<svg width="40" height="40" viewBox="0 0 40 40" fill="none" xmlns="http://www.w3.org/2000/svg">
<rect x="0.5" y="0.5" width="39" height="39" rx="19.5" fill="white" fill-opacity="0.2"/>
<rect x="0.5" y="0.5" width="39" height="39" rx="19.5" stroke="white"/>
<path d="M20 11.875C18.393 11.875 16.8221 12.3515 15.486 13.2443C14.1498 14.1371 13.1084 15.406 12.4935 16.8907C11.8785 18.3753 11.7176 20.009 12.0311 21.5851C12.3446 23.1612 13.1185 24.6089 14.2548 25.7452C15.3911 26.8815 16.8388 27.6554 18.4149 27.9689C19.991 28.2824 21.6247 28.1215 23.1093 27.5065C24.594 26.8916 25.8629 25.8502 26.7557 24.514C27.6485 23.1779 28.125 21.607 28.125 20C28.1227 17.8458 27.266 15.7805 25.7427 14.2573C24.2195 12.734 22.1542 11.8773 20 11.875ZM20.625 26.8461V21.875H22.5C22.6658 21.875 22.8247 21.8092 22.9419 21.6919C23.0592 21.5747 23.125 21.4158 23.125 21.25C23.125 21.0842 23.0592 20.9253 22.9419 20.8081C22.8247 20.6908 22.6658 20.625 22.5 20.625H20.625V18.75C20.625 18.4185 20.7567 18.1005 20.9911 17.8661C21.2255 17.6317 21.5435 17.5 21.875 17.5H23.125C23.2908 17.5 23.4497 17.4342 23.5669 17.3169C23.6842 17.1997 23.75 17.0408 23.75 16.875C23.75 16.7092 23.6842 16.5503 23.5669 16.4331C23.4497 16.3158 23.2908 16.25 23.125 16.25H21.875C21.212 16.25 20.5761 16.5134 20.1072 16.9822C19.6384 17.4511 19.375 18.087 19.375 18.75V20.625H17.5C17.3342 20.625 17.1753 20.6908 17.0581 20.8081C16.9409 20.9253 16.875 21.0842 16.875 21.25C16.875 21.4158 16.9409 21.5747 17.0581 21.6919C17.1753 21.8092 17.3342 21.875 17.5 21.875H19.375V26.8461C17.6131 26.6853 15.9811 25.8514 14.8183 24.5179C13.6556 23.1845 13.0516 21.4541 13.1321 19.6867C13.2126 17.9194 13.9714 16.2511 15.2505 15.0288C16.5297 13.8066 18.2308 13.1246 20 13.1246C21.7692 13.1246 23.4703 13.8066 24.7495 15.0288C26.0286 16.2511 26.7874 17.9194 26.8679 19.6867C26.9484 21.4541 26.3444 23.1845 25.1817 24.5179C24.0189 25.8514 22.3869 26.6853 20.625 26.8461Z" fill="white"/>
</svg>
