<svg width="40" height="40" viewBox="0 0 40 40" fill="none" xmlns="http://www.w3.org/2000/svg">
<rect x="0.5" y="0.5" width="39" height="39" rx="19.5" fill="white" fill-opacity="0.2"/>
<rect x="0.5" y="0.5" width="39" height="39" rx="19.5" stroke="white"/>
<path d="M28 19.9996C28.0001 21.8833 27.3355 23.7066 26.1233 25.1484C24.911 26.5902 23.2289 27.5579 21.3731 27.8813C19.5174 28.2046 17.6071 27.8627 15.9787 26.9158C14.3503 25.969 13.1082 24.4779 12.4712 22.7051C11.8343 20.9324 11.8433 18.9918 12.4967 17.225C13.1501 15.4583 14.406 13.9788 16.0431 13.0471C17.6803 12.1154 19.5937 11.7913 21.4463 12.1318C23.299 12.4724 24.972 13.4558 26.1708 14.9088C26.2303 14.9757 26.2758 15.054 26.3043 15.1389C26.3329 15.2238 26.3441 15.3136 26.3372 15.4029C26.3303 15.4923 26.3055 15.5793 26.2642 15.6588C26.2229 15.7383 26.1661 15.8087 26.097 15.8657C26.0279 15.9228 25.948 15.9653 25.8621 15.9908C25.7762 16.0162 25.6861 16.0241 25.5971 16.014C25.5081 16.0039 25.422 15.9759 25.344 15.9318C25.2661 15.8876 25.1978 15.8282 25.1433 15.7571C24.1628 14.5682 22.8007 13.7557 21.2887 13.4579C19.7766 13.16 18.2081 13.3952 16.85 14.1234C15.4918 14.8516 14.4279 16.0278 13.8391 17.452C13.2504 18.8762 13.1733 20.4604 13.6209 21.935C14.0684 23.4097 15.0131 24.6837 16.2941 25.5404C17.5751 26.3971 19.1133 26.7835 20.6471 26.634C22.1809 26.4844 23.6155 25.8081 24.7069 24.7201C25.7983 23.6321 26.479 22.1996 26.6333 20.6662H20C19.8232 20.6662 19.6536 20.596 19.5286 20.471C19.4036 20.346 19.3333 20.1764 19.3333 19.9996C19.3333 19.8228 19.4036 19.6532 19.5286 19.5282C19.6536 19.4032 19.8232 19.3329 20 19.3329H27.3333C27.5101 19.3329 27.6797 19.4032 27.8047 19.5282C27.9298 19.6532 28 19.8228 28 19.9996Z" fill="white"/>
</svg>
