<svg width="40" height="40" viewBox="0 0 40 40" fill="none" xmlns="http://www.w3.org/2000/svg">
<rect x="0.5" y="0.5" width="39" height="39" rx="19.5" fill="white" fill-opacity="0.2"/>
<rect x="0.5" y="0.5" width="39" height="39" rx="19.5" stroke="white"/>
<path d="M24.1667 11.6667H15.8334C13.5322 11.6667 11.6667 13.5322 11.6667 15.8334V24.1667C11.6667 26.4679 13.5322 28.3334 15.8334 28.3334H24.1667C26.4679 28.3334 28.3334 26.4679 28.3334 24.1667V15.8334C28.3334 13.5322 26.4679 11.6667 24.1667 11.6667Z" stroke="white" stroke-linecap="round" stroke-linejoin="round"/>
<path d="M23.3333 19.475C23.4362 20.1685 23.3177 20.8769 22.9948 21.4992C22.6719 22.1215 22.1609 22.6262 21.5347 22.9414C20.9084 23.2566 20.1987 23.3663 19.5065 23.255C18.8143 23.1436 18.1748 22.8167 17.679 22.321C17.1832 21.8252 16.8564 21.1857 16.745 20.4935C16.6336 19.8013 16.7434 19.0916 17.0586 18.4653C17.3738 17.8391 17.8785 17.3281 18.5008 17.0052C19.1231 16.6823 19.8314 16.5638 20.525 16.6667C21.2324 16.7716 21.8874 17.1012 22.3931 17.6069C22.8988 18.1126 23.2284 18.7676 23.3333 19.475Z" stroke="white" stroke-linecap="round" stroke-linejoin="round"/>
<path d="M24.5833 15.4167H24.5916" stroke="white" stroke-linecap="round" stroke-linejoin="round"/>
</svg>
