<svg width="24" height="25" viewBox="0 0 24 25" fill="none" xmlns="http://www.w3.org/2000/svg">
<path d="M21.9834 10.8478L8.47594 2.58556C8.19267 2.41287 7.86865 2.31844 7.53696 2.31189C7.20526 2.30534 6.87777 2.38692 6.58791 2.54829C6.29804 2.70967 6.05618 2.94506 5.88702 3.23045C5.71785 3.51584 5.62744 3.841 5.625 4.17275V20.6971C5.62744 21.0289 5.71785 21.354 5.88702 21.6394C6.05618 21.9248 6.29804 22.1602 6.58791 22.3216C6.87777 22.483 7.20526 22.5645 7.53696 22.558C7.86865 22.5514 8.19267 22.457 8.47594 22.2843L21.9834 14.0221C22.2558 13.8563 22.4809 13.6232 22.6371 13.3453C22.7934 13.0673 22.8754 12.7538 22.8754 12.4349C22.8754 12.1161 22.7934 11.8026 22.6371 11.5246C22.4809 11.2466 22.2558 11.0135 21.9834 10.8478ZM7.875 20.0146V4.85525L20.265 12.4349L7.875 20.0146Z" fill="#0B0A0A"/>
</svg>
