<svg width="40" height="40" viewBox="0 0 40 40" fill="none" xmlns="http://www.w3.org/2000/svg">
<rect x="0.5" y="0.5" width="39" height="39" rx="19.5" fill="white" fill-opacity="0.2"/>
<rect x="0.5" y="0.5" width="39" height="39" rx="19.5" stroke="white"/>
<path d="M29.3273 15.386C29.2801 15.2718 29.2 15.1742 29.0972 15.1055C28.9944 15.0368 28.8736 15.0001 28.75 15.0001H26.3727C26.0403 14.4346 25.5672 13.9647 24.9995 13.6362C24.4318 13.3076 23.7887 13.1315 23.1328 13.1251C22.6442 13.1187 22.1591 13.2101 21.7063 13.3939C21.2535 13.5777 20.842 13.8502 20.4961 14.1954C20.1401 14.5448 19.8575 14.9618 19.6649 15.422C19.4724 15.8822 19.3738 16.3762 19.375 16.8751V17.3509C16.2297 16.5212 13.657 13.9626 13.6297 13.9352C13.5458 13.8506 13.4396 13.7918 13.3234 13.7655C13.2072 13.7393 13.0859 13.7469 12.9739 13.7872C12.8618 13.8276 12.7636 13.8992 12.6909 13.9935C12.6182 14.0878 12.5739 14.201 12.5633 14.3196C12.2266 18.0532 13.3109 20.5516 14.282 21.9899C14.7555 22.7009 15.3315 23.338 15.9914 23.8805C14.8016 25.2501 12.9281 25.9696 12.9078 25.9774C12.8196 26.0104 12.74 26.063 12.675 26.1311C12.61 26.1992 12.5612 26.2811 12.5322 26.3708C12.5033 26.4604 12.495 26.5554 12.508 26.6487C12.5209 26.7419 12.5548 26.8311 12.607 26.9094C12.6656 26.9969 12.9 27.304 13.4727 27.5907C14.1805 27.9454 15.1156 28.1251 16.25 28.1251C21.7711 28.1251 26.3844 23.8735 26.8555 18.4032L29.1922 16.0673C29.2796 15.9798 29.339 15.8684 29.3631 15.7471C29.3872 15.6259 29.3747 15.5002 29.3273 15.386ZM25.8117 17.6837C25.7046 17.7911 25.6401 17.9338 25.6305 18.0852C25.3125 23.0141 21.1937 26.8751 16.25 26.8751C15.425 26.8751 14.8437 26.7657 14.4359 26.6344C15.3352 26.1462 16.5891 25.3063 17.3953 24.0969C17.4426 24.0258 17.4749 23.9458 17.49 23.8617C17.5052 23.7777 17.503 23.6914 17.4835 23.6082C17.464 23.525 17.4277 23.4467 17.3768 23.3782C17.3259 23.3096 17.2615 23.2522 17.1875 23.2094C17.1508 23.1884 13.757 21.1516 13.75 15.7094C15 16.7251 17.2852 18.3009 19.8961 18.7399C19.9856 18.755 20.0773 18.7504 20.1648 18.7265C20.2523 18.7026 20.3336 18.6599 20.403 18.6014C20.4723 18.5428 20.5281 18.4699 20.5665 18.3877C20.6048 18.3054 20.6248 18.2158 20.625 18.1251V16.8751C20.6243 16.5417 20.6903 16.2115 20.8191 15.904C20.9479 15.5965 21.1369 15.3178 21.375 15.0844C21.6032 14.8558 21.875 14.6752 22.1743 14.5533C22.4735 14.4315 22.7941 14.3709 23.1172 14.3751C24.1062 14.3876 25.0305 14.9907 25.4172 15.8759C25.4659 15.9871 25.5461 16.0818 25.6478 16.1483C25.7495 16.2147 25.8683 16.2501 25.9898 16.2501H27.2398L25.8117 17.6837Z" fill="white"/>
</svg>
